<svg width="25" height="25" viewBox="0 0 25 25" fill="none" xmlns="http://www.w3.org/2000/svg">
<path d="M24.3497 0.650395C24.0152 0.315923 23.4736 0.315923 23.1391 0.650395L15.6619 8.12758C15.3274 8.46176 15.3274 9.00399 15.6619 9.33817C15.8291 9.50541 16.048 9.58905 16.2672 9.58905C16.4861 9.58905 16.7053 9.50541 16.8725 9.33817L24.3497 1.86104C24.6841 1.52681 24.6841 0.984574 24.3497 0.650395Z" fill="#DCDCDC"/>
<path d="M24.3497 0.650395C24.1893 0.489702 23.9713 0.399505 23.7444 0.399505C23.7424 0.399505 23.7401 0.399505 23.7381 0.399505L16.2609 0.456634C15.7877 0.460345 15.4073 0.846477 15.411 1.31938C15.4147 1.78998 15.7974 2.16898 16.2672 2.16898C16.2689 2.16898 16.2712 2.16898 16.2735 2.16898L22.8816 2.11845L22.8311 8.7263C22.8277 9.1992 23.2081 9.58533 23.681 9.58904C23.683 9.58904 23.685 9.58904 23.6873 9.58904C24.157 9.58904 24.5397 9.21004 24.5434 8.73943L24.6005 1.2623C24.6022 1.0328 24.5118 0.812504 24.3497 0.650395Z" fill="#DCDCDC"/>
<path d="M24.3497 23.5385L16.8725 16.0616C16.538 15.7272 15.9964 15.7272 15.6619 16.0616C15.3274 16.3961 15.3274 16.9381 15.6619 17.2722L23.139 24.7491C23.3063 24.9164 23.5252 25 23.7444 25C23.9632 25 24.1824 24.9164 24.3497 24.7491C24.6841 24.4146 24.6841 23.8727 24.3497 23.5385Z" fill="#DCDCDC"/>
<path d="M24.5434 16.6607C24.54 16.1878 24.157 15.8168 23.681 15.8108C23.2078 15.8142 22.8274 16.2006 22.8311 16.6732L22.8813 23.2811L16.2735 23.2308C16.2715 23.2308 16.2692 23.2308 16.2672 23.2308C15.7974 23.2308 15.4147 23.6101 15.411 24.0807C15.4076 24.5533 15.788 24.9395 16.2609 24.9432L23.7381 25C23.7398 25 23.7421 25 23.7444 25C23.9713 25 24.189 24.9098 24.3497 24.7494C24.5118 24.587 24.6023 24.3667 24.6005 24.1375L24.5434 16.6607Z" fill="#DCDCDC"/>
<path d="M9.10996 7.72801L1.63307 0.250875C1.2986 -0.0833038 0.75636 -0.0835967 0.422181 0.250875C0.0877093 0.585054 0.0877093 1.12729 0.422181 1.46147L7.89907 8.9386C8.06631 9.10584 8.2855 9.18948 8.50469 9.18948C8.72358 9.18948 8.94277 9.10584 9.11001 8.9386C9.44443 8.60443 9.44443 8.06219 9.10996 7.72801Z" fill="#DCDCDC"/>
<path d="M8.51123 0.05708L1.03405 0C1.03175 0 1.02975 0 1.0275 0C0.800355 0 0.582581 0.0901823 0.422181 0.250875C0.259779 0.412984 0.169594 0.6333 0.171059 0.862743L0.228139 8.33988C0.23185 8.81048 0.614564 9.18949 1.08429 9.18949C1.08658 9.18949 1.08888 9.18949 1.09113 9.18949C1.56403 9.18577 1.94444 8.79964 1.94073 8.32674L1.89025 1.71889L8.49809 1.76938C8.5001 1.76938 8.50239 1.76938 8.50464 1.76938C8.97436 1.76938 9.35708 1.39038 9.36079 0.919774C9.36455 0.446923 8.98413 0.0607909 8.51123 0.05708Z" fill="#DCDCDC"/>
<path d="M8.93871 16.0616C8.60423 15.7272 8.062 15.7272 7.72782 16.0616L0.250634 23.5385C-0.0835448 23.8727 -0.0835448 24.4146 0.250634 24.7491C0.41787 24.9163 0.637059 25 0.856248 25C1.07514 25 1.29433 24.9163 1.46157 24.7491L8.93871 17.2722C9.27288 16.9381 9.27318 16.3961 8.93871 16.0616Z" fill="#DCDCDC"/>
<path d="M8.32684 23.2306L1.71899 23.2808L1.76953 16.673C1.77324 16.2004 1.39282 15.8142 0.919918 15.8105C0.917916 15.8105 0.915621 15.8105 0.913375 15.8105C0.443649 15.8105 0.0609351 16.1898 0.0572242 16.6604L9.53783e-05 24.1372C-0.0016136 24.3664 0.0885252 24.5867 0.250634 24.7491C0.411327 24.91 0.629345 25 0.856248 25C0.85825 25 0.860592 25 0.862838 25L8.33997 24.9429C8.81287 24.9395 9.19329 24.553 9.18958 24.0804C9.18587 23.6073 8.79285 23.2314 8.32684 23.2306Z" fill="#DCDCDC"/>
</svg>
