<svg width="28" height="25" viewBox="0 0 28 25" fill="none" xmlns="http://www.w3.org/2000/svg">
<path d="M25.23 2.43456C23.6293 0.864561 21.4878 0 19.1991 0C17.2287 0 15.3676 0.640958 13.8665 1.82096C12.3438 0.640958 10.4803 0 8.52922 0C6.22995 0 4.0827 0.864932 2.4821 2.43456C0.881444 4.00424 0 6.10516 0 8.34963C0 10.5944 0.881444 12.695 2.4821 14.2646L13.1354 24.7139C13.3295 24.9047 13.5844 25 13.8393 25C14.0935 25 14.3477 24.9049 14.5422 24.7152L25.2041 14.2894C26.8001 12.6888 27.6786 10.5853 27.6786 8.36591C27.6786 6.126 26.8117 4.02248 25.23 2.43456ZM23.7893 12.9147L13.8403 22.6432L3.88992 12.8838C2.66563 11.6826 1.99124 10.0723 1.99124 8.34963C1.99124 6.62698 2.66563 5.01663 3.88992 3.81547C5.11454 2.61463 6.762 1.95315 8.52922 1.95315C10.2683 1.95315 11.919 2.61754 13.1765 3.82326C13.5661 4.1973 14.1911 4.19401 14.5764 3.81547C15.801 2.61463 17.4425 1.95315 19.1991 1.95315C20.9557 1.95315 22.5972 2.61463 23.8135 3.80762C25.0219 5.02018 25.6873 6.63901 25.6873 8.36591C25.6873 10.072 25.0103 11.6907 23.7893 12.9147Z" fill="#DCDCDC"/>
</svg>
