<svg width="32" height="21" viewBox="0 0 32 21" fill="none" xmlns="http://www.w3.org/2000/svg">
<path d="M25.1341 11.1768C24.497 11.1768 23.9069 11.3805 23.4242 11.7254C22.9416 11.3806 22.3515 11.1768 21.7144 11.1768C20.0884 11.1768 18.7656 12.4996 18.7656 14.1255C18.7656 15.7514 20.0884 17.0743 21.7144 17.0743C22.3515 17.0743 22.9415 16.8705 23.4242 16.5256C23.9069 16.8704 24.497 17.0743 25.1341 17.0743C26.76 17.0743 28.0828 15.7514 28.0828 14.1255C28.0828 12.4996 26.76 11.1768 25.1341 11.1768ZM22.5855 15.6058C22.3299 15.7567 22.0322 15.8438 21.7144 15.8438C20.767 15.8438 19.9962 15.073 19.9962 14.1255C19.9962 13.178 20.767 12.4072 21.7144 12.4072C22.0322 12.4072 22.3299 12.4943 22.5855 12.6453C22.3316 13.0807 22.1854 13.5862 22.1854 14.1255C22.1854 14.6648 22.3316 15.1704 22.5855 15.6058ZM25.1341 15.8438C24.1866 15.8438 23.4158 15.073 23.4158 14.1255C23.4158 13.178 24.1866 12.4072 25.1341 12.4072C26.0815 12.4072 26.8524 13.178 26.8524 14.1255C26.8524 15.073 26.0815 15.8438 25.1341 15.8438Z" fill="#304150"/>
<path d="M28.2187 0H3.28122C1.47262 0 0 1.47262 0 3.28129V17.7188C0 19.5274 1.47262 21 3.28122 21H28.2187C30.0273 21 31.4999 19.5274 31.4999 17.7188V3.28129C31.4999 1.47262 30.0273 0 28.2187 0ZM30.1875 17.7187C30.1875 18.8042 29.3042 19.6875 28.2187 19.6875H3.28122C2.19577 19.6875 1.31248 18.8042 1.31248 17.7187V3.28129C1.31248 2.19583 2.19577 1.31254 3.28122 1.31254H28.2187C29.3041 1.31254 30.1874 2.19583 30.1874 3.28129V17.7187H30.1875Z" fill="#304150"/>
<path d="M12.4688 13.125H4.59377C4.23152 13.125 3.9375 13.419 3.9375 13.7813C3.9375 14.1435 4.23152 14.4375 4.59377 14.4375H12.4688C12.831 14.4375 13.125 14.1435 13.125 13.7812C13.125 13.419 12.831 13.125 12.4688 13.125Z" fill="#304150"/>
<path d="M12.4688 10.5H4.59377C4.23152 10.5 3.9375 10.794 3.9375 11.1563C3.9375 11.5185 4.23152 11.8125 4.59377 11.8125H12.4688C12.831 11.8125 13.125 11.5185 13.125 11.1562C13.125 10.794 12.831 10.5 12.4688 10.5Z" fill="#304150"/>
<path d="M12.4688 15.75H4.59377C4.23152 15.75 3.9375 16.044 3.9375 16.4063C3.9375 16.7685 4.23152 17.0625 4.59377 17.0625H12.4688C12.831 17.0625 13.125 16.7685 13.125 16.4063C13.125 16.044 12.831 15.75 12.4688 15.75Z" fill="#304150"/>
<path d="M1 5H22C22.5523 5 23 5.44772 23 6C23 6.55228 22.5523 7 22 7H1V5Z" fill="#304150"/>
</svg>
