<svg width="23" height="22" viewBox="0 0 23 22" fill="none" xmlns="http://www.w3.org/2000/svg">
<path d="M22.8363 4.98306C22.6758 4.78433 22.4203 4.66689 22.148 4.66689H4.82718V6.20535H20.9795L19.2273 11.1284H6.04817V12.6669H19.8483C20.218 12.6669 20.546 12.451 20.6593 12.133L22.9593 5.67146C23.0424 5.43741 22.9967 5.18153 22.8363 4.98306Z" fill="#304150"/>
<path d="M7.89382 16.9744C6.35935 16.9744 5.11115 18.1015 5.11115 19.4872C5.11115 20.8728 6.3594 22 7.89382 22C9.42829 22 10.6765 20.8725 10.6765 19.4872C10.6765 18.1018 9.42829 16.9744 7.89382 16.9744ZM7.89382 20.4618C7.29894 20.4618 6.81482 20.0249 6.81482 19.4874C6.81482 18.95 7.29894 18.5131 7.89382 18.5131C8.489 18.5131 8.97283 18.95 8.97283 19.4874C8.97283 20.0249 8.489 20.4618 7.89382 20.4618Z" fill="#304150"/>
<path d="M18.0026 16.9744C16.4679 16.9744 15.2197 18.1016 15.2197 19.4872C15.2197 20.8728 16.4679 22 18.0026 22C19.5368 22 20.7853 20.8728 20.7853 19.4872C20.7853 18.1016 19.5368 16.9744 18.0026 16.9744ZM18.0026 20.4615C17.4075 20.4615 16.9233 20.0244 16.9233 19.4872C16.9233 18.95 17.4075 18.5131 18.0026 18.5131C18.5975 18.5131 19.0816 18.9497 19.0816 19.4872C19.0816 20.0246 18.5978 20.4615 18.0026 20.4615Z" fill="#304150"/>
<path d="M6.67283 16.2054H19.9332C20.404 16.2054 20.785 15.861 20.785 15.4362C20.785 15.0113 20.4037 14.6669 19.9332 14.6669H7.39719L4.95835 1.15844C4.89988 0.83484 4.62104 0.580507 4.26354 0.524347L0.998133 0.0115141C0.53329 -0.0613181 0.0934774 0.218968 0.0128236 0.637398C-0.0681158 1.05613 0.242556 1.45432 0.705923 1.52715L3.37416 1.94614L5.83199 15.5597C5.89936 15.9323 6.25514 16.2054 6.67283 16.2054Z" fill="#304150"/>
</svg>
