<svg width="32" height="21" viewBox="0 0 32 21" fill="none" xmlns="http://www.w3.org/2000/svg">
<path d="M28.2187 0H3.28122C1.47262 0 0 1.47262 0 3.28129V17.7188C0 19.5274 1.47262 21 3.28122 21H28.2187C30.0273 21 31.4999 19.5274 31.4999 17.7188V3.28129C31.4999 1.47262 30.0273 0 28.2187 0ZM30.1875 17.7187C30.1875 18.8042 29.3042 19.6875 28.2187 19.6875H3.28122C2.19577 19.6875 1.31248 18.8042 1.31248 17.7187V3.28129C1.31248 2.19583 2.19577 1.31254 3.28122 1.31254H28.2187C29.3041 1.31254 30.1874 2.19583 30.1874 3.28129V17.7187H30.1875Z" fill="#304150"/>
<path d="M12.4688 13.125H4.59377C4.23152 13.125 3.9375 13.419 3.9375 13.7813C3.9375 14.1435 4.23152 14.4375 4.59377 14.4375H12.4688C12.831 14.4375 13.125 14.1435 13.125 13.7812C13.125 13.419 12.831 13.125 12.4688 13.125Z" fill="#304150"/>
<path d="M12.4688 15.75H4.59377C4.23152 15.75 3.9375 16.044 3.9375 16.4063C3.9375 16.7685 4.23152 17.0625 4.59377 17.0625H12.4688C12.831 17.0625 13.125 16.7685 13.125 16.4063C13.125 16.044 12.831 15.75 12.4688 15.75Z" fill="#304150"/>
<path d="M1 4H31V7H1V4Z" fill="#304150"/>
<path d="M20.576 17.036C20.2987 17.036 20.056 16.9773 19.848 16.86C19.64 16.7427 19.48 16.5747 19.368 16.356C19.256 16.1373 19.2 15.8813 19.2 15.588C19.2 15.2947 19.256 15.04 19.368 14.824C19.48 14.6053 19.64 14.4373 19.848 14.32C20.056 14.2027 20.2987 14.144 20.576 14.144C20.9253 14.144 21.2267 14.24 21.48 14.432C21.52 14.464 21.548 14.496 21.564 14.528C21.58 14.56 21.588 14.6 21.588 14.648C21.588 14.7173 21.568 14.7773 21.528 14.828C21.4907 14.876 21.444 14.9 21.388 14.9C21.3507 14.9 21.3173 14.896 21.288 14.888C21.2613 14.8773 21.2307 14.86 21.196 14.836C21.0893 14.7667 20.9907 14.7173 20.9 14.688C20.8093 14.656 20.712 14.64 20.608 14.64C20.352 14.64 20.1587 14.72 20.028 14.88C19.9 15.0373 19.836 15.2733 19.836 15.588C19.836 16.2227 20.0933 16.54 20.608 16.54C20.7067 16.54 20.8 16.5253 20.888 16.496C20.976 16.464 21.0787 16.4133 21.196 16.344C21.236 16.32 21.2693 16.304 21.296 16.296C21.3227 16.2853 21.3533 16.28 21.388 16.28C21.444 16.28 21.4907 16.3053 21.528 16.356C21.568 16.404 21.588 16.4627 21.588 16.532C21.588 16.58 21.5787 16.6213 21.56 16.656C21.544 16.688 21.5173 16.7187 21.48 16.748C21.2267 16.94 20.9253 17.036 20.576 17.036ZM24.1919 14.324C24.2159 14.268 24.2505 14.2267 24.2959 14.2C24.3412 14.1707 24.3919 14.156 24.4479 14.156C24.5279 14.156 24.5999 14.1827 24.6639 14.236C24.7279 14.2893 24.7599 14.3547 24.7599 14.432C24.7599 14.472 24.7505 14.512 24.7319 14.552L23.6519 16.832C23.6225 16.8933 23.5785 16.9413 23.5199 16.976C23.4612 17.008 23.3972 17.024 23.3279 17.024C23.2585 17.024 23.1945 17.008 23.1359 16.976C23.0772 16.9413 23.0332 16.8933 23.0039 16.832L21.9239 14.552C21.9052 14.5147 21.8959 14.476 21.8959 14.436C21.8959 14.356 21.9292 14.2893 21.9959 14.236C22.0625 14.1827 22.1372 14.156 22.2199 14.156C22.2759 14.156 22.3265 14.1707 22.3719 14.2C22.4199 14.2267 22.4559 14.268 22.4799 14.324L23.3359 16.196L24.1919 14.324ZM26.4799 17.036C26.2026 17.036 25.9599 16.9773 25.7519 16.86C25.5439 16.7427 25.3839 16.5747 25.2719 16.356C25.1599 16.1373 25.1039 15.8813 25.1039 15.588C25.1039 15.2947 25.1599 15.04 25.2719 14.824C25.3839 14.6053 25.5439 14.4373 25.7519 14.32C25.9599 14.2027 26.2026 14.144 26.4799 14.144C26.8292 14.144 27.1306 14.24 27.3839 14.432C27.4239 14.464 27.4519 14.496 27.4679 14.528C27.4839 14.56 27.4919 14.6 27.4919 14.648C27.4919 14.7173 27.4719 14.7773 27.4319 14.828C27.3946 14.876 27.3479 14.9 27.2919 14.9C27.2546 14.9 27.2212 14.896 27.1919 14.888C27.1652 14.8773 27.1346 14.86 27.0999 14.836C26.9932 14.7667 26.8946 14.7173 26.8039 14.688C26.7132 14.656 26.6159 14.64 26.5119 14.64C26.2559 14.64 26.0626 14.72 25.9319 14.88C25.8039 15.0373 25.7399 15.2733 25.7399 15.588C25.7399 16.2227 25.9972 16.54 26.5119 16.54C26.6106 16.54 26.7039 16.5253 26.7919 16.496C26.8799 16.464 26.9826 16.4133 27.0999 16.344C27.1399 16.32 27.1732 16.304 27.1999 16.296C27.2266 16.2853 27.2572 16.28 27.2919 16.28C27.3479 16.28 27.3946 16.3053 27.4319 16.356C27.4719 16.404 27.4919 16.4627 27.4919 16.532C27.4919 16.58 27.4826 16.6213 27.4639 16.656C27.4479 16.688 27.4212 16.7187 27.3839 16.748C27.1306 16.94 26.8292 17.036 26.4799 17.036Z" fill="black"/>
</svg>
