<svg width="23" height="20" viewBox="0 0 23 20" fill="none" xmlns="http://www.w3.org/2000/svg">
<path d="M20.9653 1.94765C19.6352 0.691649 17.8556 0 15.9538 0C14.3165 0 12.7699 0.512766 11.5226 1.45677C10.2573 0.512766 8.70882 0 7.0875 0C5.17689 0 3.39259 0.691946 2.06254 1.94765C0.732451 3.20339 0 4.88413 0 6.6797C0 8.47553 0.732451 10.156 2.06254 11.4117L10.9151 19.7711C11.0764 19.9237 11.2882 20 11.5 20C11.7113 20 11.9225 19.9239 12.0841 19.7721L20.9438 11.4315C22.27 10.1511 23 8.46823 23 6.69273C23 4.9008 22.2797 3.21798 20.9653 1.94765ZM19.7681 10.3318L11.5008 18.1146L3.2324 10.307C2.21505 9.3461 1.65465 8.05783 1.65465 6.6797C1.65465 5.30158 2.21505 4.0133 3.2324 3.05238C4.25001 2.0917 5.61901 1.56252 7.0875 1.56252C8.5326 1.56252 9.90433 2.09404 10.9493 3.05861C11.273 3.35784 11.7923 3.35521 12.1125 3.05238C13.1301 2.0917 14.4941 1.56252 15.9538 1.56252C17.4135 1.56252 18.7775 2.0917 19.7883 3.0461C20.7924 4.01614 21.3453 5.31121 21.3453 6.69273C21.3453 8.05757 20.7827 9.35259 19.7681 10.3318Z" fill="#304150"/>
</svg>
