<svg width="19" height="18" viewBox="0 0 19 18" fill="none" xmlns="http://www.w3.org/2000/svg">
<path d="M13.0625 0H5.9375C2.65881 0 0 2.51888 0 5.625V12.375C0 15.4811 2.65881 18 5.9375 18H13.0625C16.3412 18 19 15.4811 19 12.375V5.625C19 2.51888 16.3412 0 13.0625 0ZM17.2188 12.375C17.2188 14.5463 15.3544 16.3125 13.0625 16.3125H5.9375C3.64563 16.3125 1.78125 14.5463 1.78125 12.375V5.625C1.78125 3.45375 3.64563 1.6875 5.9375 1.6875H13.0625C15.3544 1.6875 17.2188 3.45375 17.2188 5.625V12.375Z" fill="#A5A5A5"/>
<path d="M9.5 4.5C6.87681 4.5 4.75 6.51487 4.75 9C4.75 11.4851 6.87681 13.5 9.5 13.5C12.1232 13.5 14.25 11.4851 14.25 9C14.25 6.51487 12.1232 4.5 9.5 4.5ZM9.5 11.8125C7.86363 11.8125 6.53125 10.5503 6.53125 9C6.53125 7.44863 7.86363 6.1875 9.5 6.1875C11.1364 6.1875 12.4688 7.44863 12.4688 9C12.4688 10.5503 11.1364 11.8125 9.5 11.8125Z" fill="#A5A5A5"/>
<path d="M14.6062 4.76213C14.9558 4.76213 15.2392 4.49367 15.2392 4.16251C15.2392 3.83134 14.9558 3.56288 14.6062 3.56288C14.2567 3.56288 13.9733 3.83134 13.9733 4.16251C13.9733 4.49367 14.2567 4.76213 14.6062 4.76213Z" fill="#A5A5A5"/>
</svg>
