<svg width="179" height="35" viewBox="0 0 179 35" fill="none" xmlns="http://www.w3.org/2000/svg">
<path d="M89.44 33.9033H81.1553V5.55078H89.44V16.153H94.4096V5.55078H102.663V33.9033H94.4096V21.9624H89.44V33.9033Z" fill="#ED1C24"/>
<path d="M61.8325 5.55078H78.8504V9.93942H69.7195V16.8792L77.6317 16.8918V21.7982H69.8584V29.401L79.3871 29.4705V33.9033H61.8325V5.55078Z" fill="#ED1C24"/>
<path d="M138.176 0.404297L130.498 33.9032H122.914L120.571 23.2442L117.894 33.9032H111.087L104.387 5.55069H112.463L115.81 20.0553L117.932 13.1914L116.782 8.31017L123.451 6.66837C123.488 7.26194 126.86 20.049 126.86 20.049L131.104 2.07134L138.176 0.404297Z" fill="#ED1C24"/>
<path d="M170.292 28.542H179V33.8779L162.121 33.9095V5.55688H170.292V7.29972C169.187 7.87435 168.429 9.03625 168.429 10.3686C168.429 11.701 169.187 12.8566 170.292 13.4375V28.542Z" fill="#ED1C24"/>
<path d="M168.436 10.3623C168.436 8.45528 169.983 6.9082 171.89 6.9082C173.797 6.9082 175.344 8.45528 175.344 10.3623C175.344 12.2693 173.797 13.8164 171.89 13.8164C169.983 13.8164 168.436 12.2693 168.436 10.3623Z" stroke="#ED1C24" stroke-width="0.9645" stroke-miterlimit="3.8637"/>
<path d="M170.298 8.23438H172.231C173.115 8.23438 173.569 8.64481 173.569 9.32679C173.569 10.1035 173.033 10.3056 172.9 10.3498V10.3624C173.146 10.394 173.5 10.5771 173.5 11.2212C173.5 11.6948 173.569 12.1242 173.721 12.2883H172.963C172.856 12.1115 172.856 11.8905 172.856 11.6948C172.856 10.9496 172.704 10.6213 172.047 10.6213H171.006V12.2883H170.298V8.23438ZM171.012 10.0782H172.174C172.622 10.0782 172.868 9.85722 172.868 9.43415C172.868 8.91635 172.534 8.81531 172.167 8.81531H171.018V10.0782H171.012Z" fill="#ED1C24"/>
<path d="M37.679 14.5739C40.5648 7.67836 46.4815 4.39478 53.7749 4.39478C55.6567 4.39478 57.5258 4.67262 59.2181 5.19042L59.2244 9.65485C57.8099 8.94761 56.1934 8.52453 54.5074 8.52453C54.3243 8.52453 54.1412 8.53084 53.958 8.53715H53.9896C48.6096 8.53715 44.6124 13.4626 44.6124 19.5435C44.6124 21.2169 44.8903 22.7955 45.3828 24.2163C46.4689 27.3989 48.4201 29.5395 50.8386 29.5395C51.1417 29.5395 51.4132 29.5522 51.71 29.489V21.6589H48.0918V16.8156H59.2812V32.7284C56.8564 33.9597 53.7623 34.4839 50.1124 34.4902C43.8294 34.4965 39.5481 31.516 37.6664 26.9126C36.7066 24.6331 36.3656 22.063 36.5992 19.3793C36.7444 17.6996 36.9402 16.3483 37.679 14.5739Z" fill="#ED1C24"/>
<path d="M0 0H29.6281V33.9031H0V0Z" fill="#00A1E4"/>
<path d="M2.73426 2.68359C2.30487 3.44765 2.43116 4.91896 3.32784 6.16294C3.7888 6.7944 4.46446 7.16063 5.14012 7.09749C5.7337 7.04065 6.45356 6.71862 6.71246 6.16294C7.34392 4.78004 6.15678 3.2077 5.46217 2.56361C4.93175 2.07738 4.38238 1.71113 3.75723 1.85005C3.25207 1.95109 2.97422 2.25419 2.73426 2.68359Z" fill="white"/>
<path d="M15.5213 4.47053C15.3697 4.77995 15.5528 5.22829 15.8433 5.56297C16.1464 5.91027 16.6832 6.29546 17.3904 6.1376C17.5988 6.09339 17.7693 6.0113 17.8956 5.84081C18.085 5.59454 17.9966 4.99465 17.624 4.53368C17.2515 4.07903 16.6011 3.85803 16.2032 3.95275C15.8496 4.04115 15.6854 4.12954 15.5213 4.47053Z" fill="white"/>
<path d="M7.36298 6.96495C6.68732 7.30594 6.18846 7.66588 6.01166 8.29102C5.64541 9.59815 6.11901 11.4988 7.05988 12.4713C8.2344 13.6837 9.73095 14.0057 11.1707 13.8858C11.8653 13.8289 12.6925 13.8479 13.4061 14.151C14.5237 14.6309 16.134 16.0643 16.7465 16.8599C17.7 18.1102 18.2557 19.4615 18.6472 20.895C19.1713 22.8146 19.2344 24.3491 18.9629 26.2308C18.7608 27.6263 18.5967 28.0557 19.0639 29.3628C19.5375 30.7015 20.8636 32.3055 22.0634 32.7664C22.878 33.0758 23.5726 33.1137 24.3998 32.8169C25.4038 32.457 25.9658 31.9708 26.4773 30.9983C27.1529 29.7228 26.9761 27.5632 25.8774 25.7762C25.2207 24.7153 24.9049 24.2164 24.4819 23.1303C23.6799 21.1097 23.5599 19.6131 23.1747 17.3398C22.8716 15.5907 22.6317 14.4983 22.297 13.0964C21.7666 10.8926 21.0215 8.87829 20.0995 7.88058C19.1839 6.8955 18.8745 6.86392 17.4095 6.74394C16.4244 6.66185 15.7046 6.21352 14.991 6.06197C12.9893 5.62626 11.0886 5.82201 9.59203 6.15669C8.70167 6.35875 8.09547 6.59239 7.36298 6.96495Z" fill="white"/>
<path d="M12.7683 2.47538C13.0651 2.46906 13.4439 2.57009 13.7533 2.78479C14.2711 3.14472 14.5806 4.03507 14.3911 4.43289C14.2459 4.7423 14.0186 4.90649 13.7533 4.9949C13.324 5.1275 12.5788 4.90017 12.2189 4.57181C11.84 4.21819 11.5685 3.47308 11.8463 3.0058C12.0042 2.7027 12.3262 2.46906 12.7683 2.47538Z" fill="white"/>
<path fill-rule="evenodd" clip-rule="evenodd" d="M9.09302 2.17853C9.23825 1.83754 9.52872 1.67966 9.74342 1.6102C10.1854 1.46497 10.7032 1.55969 11.0316 1.89437C11.4862 2.35533 11.7388 3.20781 11.4736 3.79507C11.2968 4.19289 10.9811 4.35074 10.5643 4.376C10.0402 4.40126 9.72447 4.155 9.42137 3.71298C9.26982 3.49197 9.11827 3.14467 9.11827 3.14467C8.99829 3.70035 8.7836 4.1613 8.20266 4.25602C7.75432 4.3318 7.28072 4.11711 6.87028 3.73192C6.40931 3.29621 5.91677 2.19116 6.39037 1.42709C6.65558 0.997701 7.01551 0.833508 7.48279 0.820879C8.20897 0.801935 8.70782 1.62285 8.96041 2.14065C8.99198 2.22274 9.02355 2.29219 9.02987 2.33008C9.03618 2.37428 9.05513 2.41847 9.05513 2.41847C9.05513 2.41847 9.04881 2.34271 9.06144 2.29219C9.06776 2.22905 9.09302 2.17853 9.09302 2.17853Z" fill="white"/>
<path fill-rule="evenodd" clip-rule="evenodd" d="M148.261 4.38237C142.249 4.40132 136.105 9.66769 136.105 19.4301C136.105 21.236 136.313 22.8905 136.699 24.387C138.378 30.9732 143.367 34.4904 148.267 34.4778C153.167 34.4714 158.25 30.9668 159.962 24.3807C160.353 22.8841 160.568 21.236 160.568 19.4238C160.561 9.6677 154.278 4.36343 148.261 4.38237ZM148.431 29.5966H148.242C146.152 29.5903 145.185 27.4938 144.794 24.387C144.604 22.9094 144.541 21.2108 144.548 19.3922C144.567 13.7659 145.337 9.20673 148.418 9.21936C151.506 9.23199 152.214 13.7911 152.195 19.4174C152.188 21.2234 152.119 22.9157 151.917 24.387C151.5 27.5001 150.528 29.6029 148.431 29.5966Z" fill="#ED1C24"/>
</svg>
