<svg width="215" height="42" viewBox="0 0 215 42" fill="none" xmlns="http://www.w3.org/2000/svg">
<path d="M107.428 40.7217H97.477V6.66699H107.428V19.4015H113.397V6.66699H123.31V40.7217H113.397V26.3793H107.428V40.7217Z" fill="white"/>
<path d="M74.2681 6.66699H94.7085V11.9383H83.7412V20.2737L93.2447 20.2889V26.1821H83.9081V35.3139L95.3532 35.3974V40.7217H74.2681V6.66699Z" fill="white"/>
<path d="M165.966 0.485718L156.743 40.7219H147.634L144.82 27.9191L141.604 40.7219H133.428L125.381 6.66714H135.081L139.101 24.0889L141.65 15.8445L140.269 9.9816L148.279 8.0096C148.324 8.72255 152.374 24.0813 152.374 24.0813L157.471 2.48803L165.966 0.485718Z" fill="white"/>
<path d="M204.541 34.2823H215V40.6913L194.726 40.7292V6.67444H204.541V8.76779C203.214 9.45799 202.303 10.8536 202.303 12.4539C202.303 14.0543 203.214 15.4422 204.541 16.14V34.2823Z" fill="white"/>
<path d="M202.311 12.4464C202.311 10.1558 204.169 8.29761 206.46 8.29761C208.75 8.29761 210.609 10.1558 210.609 12.4464C210.609 14.7369 208.75 16.5951 206.46 16.5951C204.169 16.5951 202.311 14.7369 202.311 12.4464Z" stroke="white" stroke-width="0.9645" stroke-miterlimit="3.8637"/>
<path d="M204.548 9.8905H206.869C207.931 9.8905 208.477 10.3835 208.477 11.2026C208.477 12.1355 207.833 12.3782 207.673 12.4313V12.4465C207.969 12.4844 208.394 12.7044 208.394 13.478C208.394 14.0468 208.477 14.5626 208.659 14.7598H207.749C207.62 14.5474 207.62 14.282 207.62 14.0468C207.62 13.1519 207.438 12.7575 206.649 12.7575H205.398V14.7598H204.548V9.8905ZM205.405 12.1052H206.801C207.34 12.1052 207.635 11.8397 207.635 11.3316C207.635 10.7096 207.233 10.5883 206.793 10.5883H205.413V12.1052H205.405Z" fill="white"/>
<path d="M45.2572 17.5049C48.7233 9.22254 55.8301 5.27856 64.5902 5.27856C66.8504 5.27856 69.0955 5.61229 71.1281 6.23423L71.1357 11.5965C69.4368 10.7471 67.4951 10.2389 65.4701 10.2389C65.2501 10.2389 65.0302 10.2465 64.8102 10.254H64.8481C58.3861 10.254 53.585 16.17 53.585 23.474C53.585 25.4839 53.9187 27.38 54.5103 29.0866C55.8149 32.9092 58.1585 35.4803 61.0634 35.4803C61.4275 35.4803 61.7536 35.4955 62.1101 35.4197V26.0148H57.7641V20.1974H71.204V39.3106C68.2915 40.7895 64.5751 41.4191 60.1912 41.4267C52.6445 41.4342 47.5022 37.8543 45.242 32.3252C44.0891 29.5871 43.6796 26.5002 43.9602 23.2768C44.1346 21.2593 44.3698 19.6362 45.2572 17.5049Z" fill="white"/>
<path d="M0 0H35.5868V40.7216H0V0Z" fill="#00A1E4"/>
<path d="M3.28414 3.22317C2.76839 4.14091 2.92008 5.90812 3.99709 7.40228C4.55076 8.16074 5.36231 8.60063 6.17386 8.52478C6.88681 8.45652 7.75145 8.06972 8.06242 7.40228C8.82088 5.74126 7.39498 3.85269 6.56068 3.07906C5.92358 2.49505 5.26372 2.05514 4.51285 2.222C3.90608 2.34336 3.57235 2.70742 3.28414 3.22317Z" fill="white"/>
<path d="M18.6429 5.36966C18.4609 5.74131 18.6809 6.27982 19.0298 6.6818C19.3938 7.09895 20.0385 7.56161 20.888 7.372C21.1383 7.31891 21.3431 7.22031 21.4947 7.01552C21.7223 6.71973 21.6161 5.99919 21.1686 5.44551C20.7211 4.89942 19.9399 4.63397 19.4621 4.74774C19.0373 4.85393 18.8401 4.96009 18.6429 5.36966Z" fill="white"/>
<path d="M8.84364 8.3657C8.03209 8.77527 7.43291 9.2076 7.22055 9.95847C6.78064 11.5285 7.34949 13.8114 8.47959 14.9795C9.89032 16.4357 11.6879 16.8225 13.4171 16.6784C14.2514 16.6101 15.245 16.6329 16.1021 16.997C17.4446 17.5734 19.3786 19.2951 20.1143 20.2507C21.2596 21.7525 21.927 23.3756 22.3973 25.0973C23.0268 27.403 23.1026 29.246 22.7765 31.5063C22.5338 33.1824 22.3366 33.6982 22.8979 35.2682C23.4667 36.8761 25.0595 38.8026 26.5005 39.3563C27.4789 39.7279 28.3132 39.7734 29.3068 39.417C30.5128 38.9846 31.1878 38.4006 31.8022 37.2326C32.6137 35.7005 32.4013 33.1066 31.0816 30.9602C30.2928 29.686 29.9136 29.0868 29.4054 27.7822C28.4422 25.3552 28.2981 23.5576 27.8354 20.8272C27.4714 18.7262 27.1832 17.4141 26.7812 15.7303C26.1441 13.0833 25.2491 10.6638 24.1417 9.46548C23.042 8.28228 22.6703 8.24435 20.9107 8.10024C19.7275 8.00164 18.8629 7.46314 18.0058 7.28111C15.6015 6.75778 13.3185 6.9929 11.521 7.39488C10.4516 7.63759 9.72346 7.91821 8.84364 8.3657Z" fill="white"/>
<path d="M15.336 2.97311C15.6924 2.96553 16.1475 3.08687 16.5192 3.34475C17.1411 3.77707 17.5127 4.84648 17.2852 5.32431C17.1108 5.69596 16.8377 5.89317 16.5192 5.99935C16.0034 6.15863 15.1084 5.88557 14.6761 5.49117C14.221 5.06644 13.8949 4.17147 14.2286 3.61021C14.4182 3.24615 14.8051 2.96553 15.336 2.97311Z" fill="white"/>
<path fill-rule="evenodd" clip-rule="evenodd" d="M10.9218 2.61668C11.0962 2.20712 11.4451 2.01748 11.703 1.93405C12.2339 1.75961 12.8558 1.87339 13.2502 2.27537C13.7963 2.82904 14.0997 3.85297 13.7811 4.55833C13.5688 5.03616 13.1896 5.22576 12.689 5.2561C12.0595 5.28644 11.6802 4.99065 11.3162 4.45973C11.1341 4.19427 10.9521 3.77712 10.9521 3.77712C10.808 4.44457 10.5501 4.99822 9.85234 5.11199C9.31383 5.20301 8.74499 4.94514 8.25199 4.48248C7.69832 3.95915 7.10672 2.63185 7.67557 1.71412C7.99412 1.19837 8.42644 1.00115 8.9877 0.985983C9.85992 0.963229 10.4591 1.94924 10.7625 2.57118C10.8004 2.66978 10.8383 2.7532 10.8459 2.79871C10.8535 2.8518 10.8763 2.90488 10.8763 2.90488C10.8763 2.90488 10.8687 2.81388 10.8838 2.7532C10.8914 2.67736 10.9218 2.61668 10.9218 2.61668Z" fill="white"/>
<path fill-rule="evenodd" clip-rule="evenodd" d="M178.078 5.26361C170.858 5.28636 163.478 11.6119 163.478 23.3376C163.478 25.5068 163.728 27.494 164.191 29.2915C166.208 37.2023 172.2 41.4269 178.086 41.4117C183.971 41.4041 190.077 37.1947 192.132 29.2839C192.603 27.4864 192.861 25.5068 192.861 23.3301C192.853 11.6119 185.306 5.24086 178.078 5.26361ZM178.283 35.5488H178.055C175.545 35.5412 174.384 33.0232 173.914 29.2915C173.687 27.5167 173.611 25.4765 173.618 23.2921C173.641 16.5343 174.566 11.0582 178.268 11.0734C181.977 11.0886 182.826 16.5646 182.803 23.3225C182.796 25.4917 182.712 27.5243 182.47 29.2915C181.969 33.0307 180.801 35.5564 178.283 35.5488Z" fill="white"/>
</svg>
