<svg width="29" height="18" viewBox="0 0 29 18" fill="none" xmlns="http://www.w3.org/2000/svg">
<path d="M17.9205 8.57996C17.9205 13.3196 14.081 17.1599 9.34304 17.1599C4.60513 17.1599 0.765625 13.3187 0.765625 8.57996C0.765625 3.8412 4.60607 0 9.34304 0C14.08 0 17.9205 3.8412 17.9205 8.57996Z" fill="#E2574C"/>
<path d="M19.6434 0C17.7197 0 15.9488 0.640937 14.5177 1.71089L14.5246 1.71174C14.806 1.9837 15.1166 2.1751 15.356 2.48818L13.5713 2.51651C13.2916 2.79882 13.0368 3.10597 12.7965 3.42517H15.9436C16.183 3.71256 16.4044 3.96231 16.6052 4.27972H12.226C12.0655 4.55601 11.9171 4.84001 11.7876 5.13512H17.1037C17.2427 5.42938 17.3671 5.65165 17.4727 5.96314H11.4727C11.3775 6.25918 11.296 6.56201 11.2341 6.87086H17.7241C17.7876 7.16775 17.8364 7.44225 17.8699 7.72202H11.1054C11.0771 8.00433 11.0625 8.29087 11.0625 8.58005H17.9188C17.9188 8.88382 17.8973 9.16519 17.8664 9.43809H11.1054C11.1346 9.72896 11.1775 10.0147 11.2341 10.2961H17.7137C17.6468 10.5741 17.5696 10.8538 17.4726 11.1438H11.4529C11.5438 11.4372 11.6546 11.7221 11.7755 12H17.1037C16.9562 12.3124 16.7889 12.562 16.6044 12.8546H12.2107C12.384 13.1549 12.5753 13.4414 12.7829 13.716L15.9437 13.7632C15.6743 14.0866 15.3286 14.2814 15.0136 14.5646C15.0307 14.5783 14.51 14.5629 13.4846 14.5466C15.0445 16.1562 17.2247 17.16 19.6433 17.16C24.3821 17.16 28.2233 13.3187 28.2233 8.58005C28.2233 3.84139 24.3829 0 19.6434 0Z" fill="#F4B459"/>
</svg>
