<svg width="67" height="17" viewBox="0 0 67 17" fill="none" xmlns="http://www.w3.org/2000/svg">
<path d="M51.4224 4.43481H47.8324C47.6212 4.43481 47.41 4.64599 47.3044 4.85717L45.8262 14.1491C45.8262 14.3603 45.9318 14.4659 46.1429 14.4659H48.0436C48.2547 14.4659 48.3603 14.3603 48.3603 14.1491L48.7827 11.5094C48.7827 11.2982 48.9939 11.087 49.3106 11.087H50.4721C52.9007 11.087 54.2734 9.9255 54.5901 7.60252C54.8013 6.65221 54.5901 5.80749 54.1678 5.27954C53.5342 4.75159 52.5839 4.43481 51.4224 4.43481ZM51.8448 7.91929C51.6336 9.18637 50.6833 9.18637 49.733 9.18637H49.0995L49.5218 6.7578C49.5218 6.65221 49.6274 6.54662 49.8386 6.54662H50.0498C50.6833 6.54662 51.3169 6.54662 51.6336 6.96898C51.8448 7.07457 51.8448 7.39134 51.8448 7.91929Z" fill="#139AD6"/>
<path d="M25.5533 4.43481H21.9632C21.7521 4.43481 21.5409 4.64599 21.4353 4.85717L19.957 14.1491C19.957 14.3603 20.0626 14.4659 20.2738 14.4659H21.9632C22.1744 14.4659 22.3856 14.2547 22.4912 14.0435L22.9136 11.5094C22.9136 11.2982 23.1247 11.087 23.4415 11.087H24.603C27.0316 11.087 28.4042 9.9255 28.721 7.60252C28.9322 6.65221 28.721 5.80749 28.2986 5.27954C27.6651 4.75159 26.8204 4.43481 25.5533 4.43481ZM25.9757 7.91929C25.7645 9.18637 24.8142 9.18637 23.8639 9.18637H23.3359L23.7583 6.7578C23.7583 6.65221 23.8639 6.54662 24.075 6.54662H24.2862C24.9198 6.54662 25.5533 6.54662 25.8701 6.96898C25.9757 7.07457 26.0813 7.39134 25.9757 7.91929Z" fill="#263B80"/>
<path d="M36.429 7.81372H34.7396C34.634 7.81372 34.4228 7.91931 34.4228 8.0249L34.3172 8.55285L34.2116 8.34167C33.7893 7.81372 33.0501 7.60254 32.2054 7.60254C30.3048 7.60254 28.6153 9.0808 28.2986 11.087C28.0874 12.1429 28.4042 13.0932 28.9321 13.7268C29.4601 14.3603 30.1992 14.5715 31.1495 14.5715C32.7334 14.5715 33.5781 13.6212 33.5781 13.6212L33.4725 14.1491C33.4725 14.3603 33.5781 14.4659 33.7893 14.4659H35.3731C35.5843 14.4659 35.7955 14.2547 35.9011 14.0435L36.8514 8.13049C36.7458 8.0249 36.5346 7.81372 36.429 7.81372ZM34.0004 11.1926C33.7893 12.1429 33.0501 12.882 31.9942 12.882C31.4663 12.882 31.0439 12.6709 30.8327 12.4597C30.6216 12.1429 30.516 11.7206 30.516 11.1926C30.6216 10.2423 31.4663 9.50316 32.4166 9.50316C32.9445 9.50316 33.2613 9.71434 33.5781 9.92552C33.8948 10.2423 34.0004 10.7702 34.0004 11.1926Z" fill="#263B80"/>
<path d="M62.1927 7.81372H60.5032C60.3976 7.81372 60.1865 7.91931 60.1865 8.0249L60.0809 8.55285L59.9753 8.34167C59.5529 7.81372 58.8138 7.60254 57.9691 7.60254C56.0685 7.60254 54.379 9.0808 54.0622 11.087C53.8511 12.1429 54.1678 13.0932 54.6958 13.7268C55.2237 14.3603 55.9629 14.5715 56.9132 14.5715C58.497 14.5715 59.3417 13.6212 59.3417 13.6212L59.2362 14.1491C59.2362 14.3603 59.3417 14.4659 59.5529 14.4659H61.1368C61.348 14.4659 61.5591 14.2547 61.6647 14.0435L62.615 8.13049C62.5094 8.0249 62.4039 7.81372 62.1927 7.81372ZM59.7641 11.1926C59.5529 12.1429 58.8138 12.882 57.7579 12.882C57.2299 12.882 56.8076 12.6709 56.5964 12.4597C56.3852 12.1429 56.2796 11.7206 56.2796 11.1926C56.3852 10.2423 57.2299 9.50316 58.1803 9.50316C58.7082 9.50316 59.025 9.71434 59.3417 9.92552C59.7641 10.2423 59.8697 10.7702 59.7641 11.1926Z" fill="#139AD6"/>
<path d="M45.6148 7.81372H43.8198C43.6086 7.81372 43.503 7.91931 43.3974 8.0249L41.0744 11.615L40.0185 8.23608C39.9129 8.0249 39.8074 7.91931 39.4906 7.91931H37.8011C37.59 7.91931 37.4844 8.13049 37.4844 8.34167L39.385 13.9379L37.59 16.4721C37.4844 16.6833 37.59 17.0001 37.8011 17.0001H39.4906C39.7018 17.0001 39.8074 16.8945 39.9129 16.7889L45.7204 8.44726C46.0372 8.13049 45.826 7.81372 45.6148 7.81372Z" fill="#263B80"/>
<path d="M64.199 4.75163L62.7207 14.2547C62.7207 14.4659 62.8263 14.5715 63.0375 14.5715H64.5157C64.7269 14.5715 64.9381 14.3603 65.0437 14.1491L66.5219 4.85722C66.5219 4.64604 66.4164 4.54045 66.2052 4.54045H64.5157C64.4101 4.43486 64.3046 4.54045 64.199 4.75163Z" fill="#139AD6"/>
<path d="M12.1429 1.26708C11.4037 0.422359 10.0311 0 8.13044 0H2.85093C2.53416 0 2.21739 0.316769 2.1118 0.633539L0 14.4658C0 14.7826 0.21118 14.9938 0.42236 14.9938H3.69565L4.54037 9.81988V10.0311C4.64596 9.71429 4.96273 9.39752 5.27951 9.39752H6.86336C9.92547 9.39752 12.2485 8.13044 12.9876 4.64596C12.9876 4.54037 12.9876 4.43478 12.9876 4.32919C12.882 4.32919 12.882 4.32919 12.9876 4.32919C13.0932 2.95652 12.882 2.1118 12.1429 1.26708Z" fill="#263B80"/>
<path d="M12.882 4.3291C12.882 4.43469 12.882 4.54028 12.882 4.64587C12.1429 8.23594 9.8199 9.39743 6.75779 9.39743H5.17394C4.85717 9.39743 4.5404 9.7142 4.43481 10.031L3.37891 16.472C3.37891 16.6831 3.4845 16.8943 3.80127 16.8943H6.54661C6.86338 16.8943 7.18015 16.6831 7.18015 16.3664V16.2608L7.7081 12.9875V12.7763C7.7081 12.4595 8.02487 12.2484 8.34164 12.2484H8.764C11.4038 12.2484 13.5156 11.1925 14.0435 8.02476C14.2547 6.75767 14.1491 5.59618 13.5156 4.85705C13.41 4.64587 13.1988 4.43469 12.882 4.3291Z" fill="#139AD6"/>
<path d="M12.1435 4.01233C12.0379 4.01233 11.9323 3.90674 11.8267 3.90674C11.7211 3.90674 11.6156 3.90674 11.51 3.80115C11.0876 3.69556 10.6652 3.69556 10.1373 3.69556H6.01928C5.91369 3.69556 5.8081 3.69556 5.70251 3.80115C5.49133 3.90674 5.38574 4.11792 5.38574 4.3291L4.54102 9.81978V10.031C4.64661 9.71419 4.96338 9.39742 5.28015 9.39742H6.864C9.92611 9.39742 12.2491 8.13034 12.9882 4.64587C12.9882 4.54028 12.9882 4.43469 13.0938 4.3291C12.8826 4.22351 12.777 4.11792 12.5659 4.11792C12.2491 4.01233 12.2491 4.01233 12.1435 4.01233Z" fill="#232C65"/>
</svg>
