<svg width="19" height="19" viewBox="0 0 19 19" fill="none" xmlns="http://www.w3.org/2000/svg">
<path d="M17.5542 13.4763L15.1768 11.1039C14.3278 10.2566 12.8843 10.5955 12.5447 11.697C12.29 12.4596 11.4409 12.8832 10.6768 12.7137C8.97862 12.2901 6.68613 10.0871 6.2616 8.30783C6.00688 7.54524 6.51632 6.69796 7.28048 6.44381C8.38427 6.10489 8.7239 4.66451 7.87483 3.81722L5.49744 1.44482C4.81818 0.851725 3.7993 0.851725 3.20495 1.44482L1.59172 3.05467C-0.0215086 4.74924 1.76154 9.23985 5.75216 13.2221C9.74278 17.2043 14.2428 19.0684 15.941 17.3738L17.5542 15.7639C18.1486 15.0861 18.1486 14.0694 17.5542 13.4763Z" stroke="#0152B1" stroke-width="2"/>
</svg>
