<svg width="15" height="18" viewBox="0 0 15 18" fill="none" xmlns="http://www.w3.org/2000/svg">
<path d="M7.75098 0C2.69098 0 0 3.16139 0 6.60855C0 8.20725 0.916224 10.2008 2.38288 10.8331C2.60559 10.931 2.72675 10.8894 2.77637 10.688C2.82022 10.535 3.01292 9.79807 3.10639 9.45043C3.13524 9.33905 3.12024 9.24229 3.02793 9.13766C2.54096 8.58864 2.1544 7.58847 2.1544 6.65018C2.1544 4.24594 4.11493 1.91146 7.45096 1.91146C10.3358 1.91146 12.354 3.73854 12.354 6.35204C12.354 9.3053 10.7512 11.3484 8.66836 11.3484C7.51558 11.3484 6.65705 10.4663 6.92938 9.37505C7.25825 8.07562 7.9033 6.6783 7.9033 5.74114C7.9033 4.90072 7.41634 4.20544 6.42165 4.20544C5.2481 4.20544 4.2961 5.33837 4.2961 6.85944C4.2961 7.82586 4.6469 8.47838 4.6469 8.47838C4.6469 8.47838 3.48604 13.0506 3.27025 13.9045C2.90561 15.3502 3.31987 17.6914 3.35564 17.8928C3.37757 18.0042 3.50565 18.0391 3.5772 17.9479C3.69144 17.8017 5.09462 15.8497 5.48811 14.4389C5.6312 13.9248 6.21856 11.84 6.21856 11.84C6.60512 12.5207 7.72098 13.0911 8.90953 13.0911C12.4452 13.0911 15 10.0613 15 6.30141C14.9873 2.69675 11.8232 0 7.75098 0Z" fill="#BD081C"/>
</svg>
