<svg width="21" height="22" viewBox="0 0 21 22" fill="none" xmlns="http://www.w3.org/2000/svg">
<path d="M10.5 12.3917C3.72901 12.3917 0 15.5188 0 21.1971C0 21.6406 0.368179 22 0.822449 22H20.1776C20.6318 22 21 21.6406 21 21.1971C21 15.5191 17.271 12.3917 10.5 12.3917ZM1.67483 20.3942C1.99833 16.1486 4.96326 13.9976 10.5 13.9976C16.0368 13.9976 19.0018 16.1486 19.3255 20.3942H1.67483Z" fill="#304150"/>
<path d="M10.5 0C7.38976 0 5.04442 2.3357 5.04442 5.43284C5.04442 8.62069 7.49178 11.2139 10.5 11.2139C13.5083 11.2139 15.9556 8.62069 15.9556 5.4331C15.9556 2.3357 13.6103 0 10.5 0ZM10.5 9.60829C8.39865 9.60829 6.68931 7.73532 6.68931 5.4331C6.68931 3.21544 8.292 1.60583 10.5 1.60583C12.6727 1.60583 14.3107 3.25102 14.3107 5.4331C14.3107 7.73532 12.6014 9.60829 10.5 9.60829Z" fill="#304150"/>
</svg>
