<svg width="22" height="23" viewBox="0 0 22 23" fill="none" xmlns="http://www.w3.org/2000/svg">
<path d="M21.738 21.404L16.6106 16.0436C16.2612 15.6783 15.6954 15.6783 15.346 16.0436C14.9966 16.4085 14.9966 17.0007 15.346 17.3656L20.4734 22.7261C20.6481 22.9087 20.8767 23 21.1057 23C21.3343 23 21.5633 22.9087 21.738 22.7261C22.0873 22.3611 22.0873 21.769 21.738 21.404Z" fill="#304150"/>
<path d="M9.68833 0C4.34633 0 0 4.54389 0 10.1287C0 15.7138 4.34633 20.2574 9.68833 20.2574C15.0306 20.2574 19.3767 15.7138 19.3767 10.1287C19.3767 4.54389 15.0306 0 9.68833 0ZM9.68833 18.3876C5.33246 18.3876 1.78862 14.6826 1.78862 10.1288C1.78862 5.57489 5.33246 1.86992 9.68833 1.86992C14.0442 1.86992 17.588 5.57485 17.588 10.1287C17.588 14.6826 14.0442 18.3876 9.68833 18.3876Z" fill="#304150"/>
</svg>
