<svg width="36" height="11" viewBox="0 0 36 11" fill="none" xmlns="http://www.w3.org/2000/svg">
<path d="M14.6689 0L12.9176 10.8982H15.7168L17.4671 0H14.6689ZM23.1124 4.43933C22.1342 3.95626 21.5346 3.63023 21.5346 3.13616C21.5465 2.68694 22.0417 2.22672 23.1474 2.22672C24.0568 2.20388 24.7253 2.4176 25.2324 2.63025L25.4864 2.74363L25.867 0.463452C25.3141 0.249726 24.4374 0.0142319 23.3545 0.0142319C20.5902 0.0142319 18.6437 1.45147 18.6316 3.50704C18.6088 5.02393 20.0252 5.86568 21.0852 6.37063C22.1681 6.88862 22.5367 7.22446 22.5367 7.68468C22.5247 8.39128 21.6611 8.71731 20.8552 8.71731C19.7386 8.71731 19.1388 8.5494 18.2283 8.15567L17.8597 7.98775L17.4683 10.3574C18.1258 10.6497 19.3351 10.907 20.5903 10.9201C23.5281 10.9201 25.4396 9.50464 25.4637 7.31392C25.4732 6.11218 24.7263 5.19173 23.1124 4.43933ZM33.0433 0.033727H30.8776C30.2103 0.033727 29.7031 0.225686 29.4142 0.910518L25.2562 10.8982H28.1939L29.003 8.73585H32.2897L32.7095 10.907H35.3006L33.0433 0.033727ZM29.8177 6.55362C29.8744 6.55912 30.9453 3.02374 30.9453 3.02374L31.7981 6.55362C31.7981 6.55362 30.3706 6.55362 29.8177 6.55362ZM10.5786 0L7.836 7.40434L7.53724 5.94414C7.03014 4.25933 5.44029 2.42849 3.66602 1.51904L6.17739 10.8873H9.13917L13.5403 0.00119535H10.5786V0Z" fill="#2394BC"/>
<path d="M6.61542 1.40534C6.4017 0.574361 5.7201 0.0139132 4.79439 0.00195312H0.450981L0.40625 0.203599C3.79441 1.03889 6.63827 3.6091 7.56087 6.0267L6.61542 1.40534Z" fill="#EFC75E"/>
</svg>
